<?xml version="1.0" standalone="no"?>
<!DOCTYPE svg PUBLIC "-//W3C//DTD SVG 20010904//EN"
 "http://www.w3.org/TR/2001/REC-SVG-20010904/DTD/svg10.dtd">
<svg version="1.0" xmlns="http://www.w3.org/2000/svg"
 width="322.000000pt" height="96.000000pt" viewBox="0 0 322.000000 96.000000"
 preserveAspectRatio="xMidYMid meet">

<g transform="translate(0.000000,96.000000) scale(0.100000,-0.100000)"
fill="#000000" stroke="none">
<path d="M367 935 c-83 -23 -155 -64 -214 -124 -70 -70 -109 -145 -131 -250
-14 -68 -14 -90 -4 -152 31 -178 145 -315 315 -378 79 -29 213 -29 299 0 125
42 221 128 277 250 124 267 -24 578 -312 655 -64 17 -166 17 -230 -1z m238
-176 c24 -12 59 -37 76 -57 l31 -35 -36 -19 -37 -19 -34 30 c-68 59 -162 63
-236 9 -61 -44 -79 -92 -79 -215 l0 -101 97 -50 98 -50 97 51 98 52 0 63 0 64
-67 -38 c-38 -21 -81 -45 -97 -55 -29 -18 -30 -18 -98 19 -68 37 -68 37 -68
79 0 24 3 43 8 43 4 0 34 -14 68 -32 l60 -32 94 54 c156 89 180 77 180 -96 0
-111 0 -113 -27 -132 -46 -32 -231 -122 -252 -122 -21 0 -224 103 -254 129
-17 14 -18 30 -15 156 3 122 6 146 26 183 37 70 103 124 177 143 46 12 140 2
190 -22z"/>
<path d="M2350 540 l0 -220 35 0 35 0 0 220 0 220 -35 0 -35 0 0 -220z"/>
<path d="M2513 743 c-19 -7 -16 -60 3 -67 9 -3 19 -6 24 -6 11 0 40 29 40 40
0 13 -30 40 -43 39 -7 0 -18 -3 -24 -6z"/>
<path d="M1261 627 c-51 -18 -74 -56 -79 -132 -5 -79 1 -105 33 -143 31 -37
81 -48 129 -28 34 14 36 14 36 -5 0 -11 -12 -31 -26 -46 -21 -21 -32 -24 -61
-20 -20 4 -43 13 -53 22 -16 14 -19 14 -34 -10 -16 -25 -16 -25 16 -45 40 -24
126 -27 167 -5 52 26 61 65 61 249 l0 166 -29 0 c-17 0 -33 -5 -36 -10 -4 -6
-13 -7 -23 -1 -33 16 -67 19 -101 8z m97 -63 c19 -13 22 -24 22 -86 0 -81 -15
-108 -61 -108 -43 0 -69 41 -69 107 0 44 5 58 25 78 28 29 51 31 83 9z"/>
<path d="M1628 621 c-30 -15 -38 -16 -38 -5 0 9 -12 14 -35 14 l-35 0 0 -155
0 -155 35 0 35 0 0 115 c0 112 1 115 26 131 33 22 75 9 85 -26 4 -14 7 -69 8
-122 l1 -98 35 0 34 0 3 117 c3 115 4 118 29 132 24 13 29 13 53 -2 26 -17 26
-19 26 -132 l0 -115 35 0 35 0 0 115 c0 146 -12 179 -69 195 -42 11 -100 -4
-116 -30 -5 -8 -13 -6 -29 8 -33 31 -75 35 -118 13z"/>
<path d="M2129 630 c-71 -21 -108 -76 -109 -163 0 -120 104 -187 214 -139 47
22 57 40 31 62 -12 10 -20 9 -40 -4 -49 -32 -114 -12 -130 42 -6 22 -5 22 94
22 l101 0 0 40 c0 101 -73 165 -161 140z m71 -70 c11 -11 20 -29 20 -40 0 -18
-7 -20 -66 -20 -63 0 -65 1 -59 23 9 28 42 57 66 57 10 0 28 -9 39 -20z"/>
<path d="M3046 630 c-45 -14 -76 -49 -76 -86 0 -46 26 -70 99 -94 71 -22 85
-34 70 -62 -16 -29 -84 -25 -105 7 -20 31 -74 36 -74 6 0 -31 39 -70 82 -81
89 -25 168 16 168 86 0 51 -21 71 -102 94 -60 18 -68 24 -68 45 0 43 77 49 95
7 14 -31 75 -32 75 -1 0 25 -52 79 -77 79 -10 0 -27 2 -38 5 -11 2 -33 0 -49
-5z"/>
<path d="M2500 475 l0 -155 35 0 35 0 0 155 0 155 -35 0 -35 0 0 -155z"/>
<path d="M2641 500 c4 -126 5 -130 32 -157 23 -23 36 -28 77 -27 27 0 56 6 64
13 11 9 16 10 16 2 0 -6 16 -11 35 -11 l35 0 0 155 0 155 -35 0 -35 0 0 -113
c0 -125 -9 -147 -63 -147 -45 0 -57 31 -57 152 l0 108 -36 0 -36 0 3 -130z"/>
</g>
</svg>
