<?xml version="1.0" encoding="UTF-8"?>
<svg width="200px" height="100px" viewBox="0 0 200 100" version="1.1" xmlns="http://www.w3.org/2000/svg" xmlns:xlink="http://www.w3.org/1999/xlink">
    <!-- Generator: Sketch 61.2 (89653) - https://sketch.com -->
    <title>Artboard Copy</title>
    <desc>Created with Sketch.</desc>
    <defs>
        <linearGradient x1="-200.625184%" y1="146.345029%" x2="566.1959%" y2="-151.629073%" id="linearGradient-1">
            <stop stop-color="#006C8A" offset="0%"></stop>
            <stop stop-color="#217981" offset="25%"></stop>
            <stop stop-color="#009CB2" offset="50%"></stop>
            <stop stop-color="#00D4D4" offset="75%"></stop>
            <stop stop-color="#00F3F3" offset="100%"></stop>
        </linearGradient>
        <linearGradient x1="-92.8363636%" y1="105.904846%" x2="602.545455%" y2="-119.930473%" id="linearGradient-2">
            <stop stop-color="#006C8A" offset="0%"></stop>
            <stop stop-color="#217981" offset="25%"></stop>
            <stop stop-color="#009CB2" offset="50%"></stop>
            <stop stop-color="#00D4D4" offset="75%"></stop>
            <stop stop-color="#00F3F3" offset="100%"></stop>
        </linearGradient>
        <linearGradient x1="-311.01647%" y1="179.853862%" x2="459.080853%" y2="-118.016701%" id="linearGradient-3">
            <stop stop-color="#006C8A" offset="0%"></stop>
            <stop stop-color="#217981" offset="25%"></stop>
            <stop stop-color="#009CB2" offset="50%"></stop>
            <stop stop-color="#00D4D4" offset="75%"></stop>
            <stop stop-color="#00F3F3" offset="100%"></stop>
        </linearGradient>
        <linearGradient x1="-423.960849%" y1="209.238122%" x2="473.50015%" y2="-86.4676639%" id="linearGradient-4">
            <stop stop-color="#006C8A" offset="0%"></stop>
            <stop stop-color="#217981" offset="25%"></stop>
            <stop stop-color="#009CB2" offset="50%"></stop>
            <stop stop-color="#00D4D4" offset="75%"></stop>
            <stop stop-color="#00F3F3" offset="100%"></stop>
        </linearGradient>
        <linearGradient x1="-561.377714%" y1="286.765878%" x2="419.313936%" y2="-92.3996811%" id="linearGradient-5">
            <stop stop-color="#006C8A" offset="0%"></stop>
            <stop stop-color="#217981" offset="25%"></stop>
            <stop stop-color="#009CB2" offset="50%"></stop>
            <stop stop-color="#00D4D4" offset="75%"></stop>
            <stop stop-color="#00F3F3" offset="100%"></stop>
        </linearGradient>
        <linearGradient x1="-375.25059%" y1="180.711948%" x2="188.502358%" y2="4.18586446%" id="linearGradient-6">
            <stop stop-color="#006C8A" offset="0%"></stop>
            <stop stop-color="#217981" offset="25%"></stop>
            <stop stop-color="#009CB2" offset="50%"></stop>
            <stop stop-color="#00D4D4" offset="75%"></stop>
            <stop stop-color="#00F3F3" offset="100%"></stop>
        </linearGradient>
    </defs>
    <g id="Artboard-Copy" stroke="none" stroke-width="1" fill="none" fill-rule="evenodd">
        <g id="abtasty-logo" transform="translate(2.000000, 31.000000)" fill-rule="nonzero">
            <path d="M62.3155,13.65 C62.6420315,13.3810654 62.9345264,13.0732909 63.1865,12.7335 C64.1392588,11.5761717 64.8071599,10.2114272 65.1365,8.749 C65.6157228,6.41102336 64.9270443,3.98609879 63.2905,2.249 C61.75,0.65 59.8,0 56.55,0 L43.4785,0 L41.418,11.7 L35.75,11.7 L37.258,17.745 L40.352,17.745 L37.9925,31.122 L53.1505,31.122 C56.797,31.122 59.514,30.225 61.776,28.301 C63.7794955,26.5531259 65.0914107,24.1460266 65.4745,21.515 C65.9793138,18.9707826 65.2100831,16.3403536 63.414,14.469 C63.0970983,14.1354881 62.7255976,13.8585112 62.3155,13.65 Z M49.868,6.0515 L54.8535,6.0515 C56.628,6.0515 57.2065,6.487 57.564,6.955 C57.9424301,7.48558738 58.0879818,8.14761282 57.967,8.788 C57.8128949,9.52843325 57.4228992,10.1989521 56.8555,10.699 C56.2965,11.206 55.5555,11.674 53.716,11.674 L48.8735,11.674 L49.868,6.0515 Z M58.2725,21.32 C58.0930623,22.3009133 57.5867294,23.1921509 56.836,23.8485 C55.9325,24.6935 54.7495,25.0705 53.0075,25.0705 L46.5075,25.0705 L47.567,19.071 L47.801,17.719 L54.4505,17.719 C56.667,17.719 57.395,18.369 57.759,18.8825 L57.759,18.8825 C58.2757752,19.5819858 58.4631622,20.4714808 58.2725,21.32 Z" id="Shape" fill="url(#linearGradient-1)"></path>
            <path d="M20.995,0 L0,31.122 L8.3655,31.122 L13.325,23.7705 L25.5775,23.7705 L27.4105,31.122 L35.75,31.122 L27.95,0 L20.995,0 Z M17.407,17.719 L22.2755,10.504 L24.05,17.719 L17.407,17.719 Z" id="Shape" fill="url(#linearGradient-2)"></path>
            <polygon id="Path" fill="url(#linearGradient-3)" points="104.8905 0 75.7575 0 74.8605 5.07 86.5605 5.07 81.978 31.135 87.672 31.135 92.3 5.07 104 5.07"></polygon>
            <path d="M117.39,11.6285 C115.695667,8.7685 113.009,7.3385 109.33,7.3385 C105.673593,7.27507666 102.169204,8.79965168 99.723,11.518 C97.171434,14.2209806 95.7726185,17.8112736 95.823,21.528 C95.7033789,24.2582884 96.6337392,26.9307484 98.423,28.9965 C100.1585,30.8685 102.6025,31.798 105.716,31.798 C109.142925,31.8894165 112.416486,30.3776176 114.569,27.7095 L114.127,31.122 L119.4375,31.122 L123.513,8.008 L118.04,8.008 L117.39,11.6285 Z M113.685,24.375 C112.061166,26.0624941 109.798741,26.983523 107.458,26.91 C103.5905,26.91 101.3675,24.6415 101.3675,20.8585 C101.316264,18.5885433 102.180704,16.3934741 103.766,14.768 C105.389834,13.0805059 107.652259,12.159477 109.993,12.233 C113.893,12.233 116.1745,14.586 116.1745,18.278 C116.203376,20.5633788 115.305244,22.7629827 113.685,24.375 L113.685,24.375 Z" id="Shape" fill="url(#linearGradient-4)"></path>
            <path d="M137.9885,11.518 C141.752,11.518 143.1885,12.4865 143.234,14.5535 L143.234,14.82 L148.1285,12.6425 C147.654,8.866 144.157,7.3385 138.4305,7.3385 C130.9555,7.3385 126.3275,9.9385 126.3275,15.431 C126.3275,19.1685 128.596,20.995 133.3995,21.3915 L138.2485,21.84 C140.517,22.0155 141.4985,22.6395 141.4985,24.193 C141.4985,26.4615 139.36,27.573 135.044,27.573 C131.144,27.573 129.5775,26.6825 129.441,24.5505 L129.441,24.3295 C129.441,24.3295 124.527,26.4875 124.527,26.5135 C124.956,30.3615 128.557,31.798 134.277,31.798 C142.285,31.798 147.277,29.133 147.277,23.439 C147.277,19.7015 145.145,18.148 140.127,17.654 L135.2845,17.212 C133.055,17.0365 131.9435,16.237 131.9435,14.768 C131.9825,12.584 133.9845,11.518 137.9885,11.518 Z" id="Path" fill="url(#linearGradient-5)"></path>
            <path d="M189.15,8.008 L178.1975,25.4735 L173.55,8.008 L161.85,8.008 L163.02,1.352 L156.9425,4.03 L156.2405,8.008 L151.827,8.008 L150.943,12.766 L155.402,12.766 L153.634,22.75 C152.7045,28.041 155.181,31.772 161.2325,31.772 L165.945,31.772 L164.528,26.6825 L162.8575,26.6825 C159.7245,26.6825 158.7235,25.3825 159.263,22.3015 C159.8025,19.2205 160.953,12.74 160.953,12.74 L169.195,12.74 L174.291,31.772 L170.1765,38.363 L176.059,38.363 L195.039,7.9885 L189.15,8.008 Z" id="Path" fill="url(#linearGradient-6)"></path>
            <polygon id="Path" fill="#B2B2B2" style="mix-blend-mode: multiply;" points="26.7215 28.353 34.203 25.025 33.891 23.7705 25.5775 23.7705"></polygon>
            <polygon id="Path" fill="#B2B2B2" style="mix-blend-mode: multiply;" points="39.481 22.6785 47.5735 19.071 47.8075 17.719 40.352 17.719"></polygon>
        </g>
    </g>
</svg>