<svg xmlns="http://www.w3.org/2000/svg" xmlns:xlink="http://www.w3.org/1999/xlink" viewBox="0 0 300.06 59.06"><defs><linearGradient id="a" x1="-47.02" y1="70.07" x2="335.44" y2="-72.6" gradientUnits="userSpaceOnUse"><stop offset="0" stop-color="#006c8a"/><stop offset="0.25" stop-color="#217981"/><stop offset="0.5" stop-color="#009cb2"/><stop offset="0.75" stop-color="#00d4d4"/><stop offset="1" stop-color="#00f3f3"/></linearGradient><linearGradient id="b" x1="-51.06" y1="59.26" x2="331.4" y2="-83.42" xlink:href="#a"/><linearGradient id="c" x1="-41.02" y1="86.15" x2="341.43" y2="-56.53" xlink:href="#a"/><linearGradient id="d" x1="-33.27" y1="106.94" x2="349.19" y2="-35.74" xlink:href="#a"/><linearGradient id="e" x1="-28.69" y1="119.2" x2="353.76" y2="-23.48" xlink:href="#a"/><linearGradient id="f" x1="-22.35" y1="136.2" x2="360.1" y2="-6.48" xlink:href="#a"/></defs><title>abtasty-logo</title><g style="isolation:isolate"><path d="M95.87,21a8,8,0,0,0,1.34-1.41,14.74,14.74,0,0,0,3-6.13,11.28,11.28,0,0,0-2.84-10C95,1,92,0,87,0H66.89L63.72,18H55l2.32,9.3h4.76L58.45,47.88H81.77c5.61,0,9.79-1.38,13.27-4.34a17.13,17.13,0,0,0,5.69-10.44,12.22,12.22,0,0,0-3.17-10.84A6.22,6.22,0,0,0,95.87,21ZM76.72,9.31h7.67c2.73,0,3.62.67,4.17,1.39a3.68,3.68,0,0,1,.62,2.82,5.38,5.38,0,0,1-1.71,2.94c-.86.78-2,1.5-4.83,1.5H75.19ZM89.65,32.8a6.79,6.79,0,0,1-2.21,3.89c-1.39,1.3-3.21,1.88-5.89,1.88h-10l1.63-9.23.36-2.08H83.77c3.41,0,4.53,1,5.09,1.79v0A4.61,4.61,0,0,1,89.65,32.8Z" style="fill:url(#a)"/><path d="M32.3,0,0,47.88H12.87L20.5,36.57H39.35l2.82,11.31H55L43,0ZM26.78,27.26l7.49-11.1L37,27.26Z" style="fill:url(#b)"/><polygon points="161.37 0 116.55 0 115.17 7.8 133.17 7.8 126.12 47.9 134.88 47.9 142 7.8 160 7.8 161.37 0" style="fill:url(#c)"/><path d="M180.6,17.89q-3.91-6.6-12.4-6.6a19.43,19.43,0,0,0-14.78,6.43,22,22,0,0,0-6,15.4,16.45,16.45,0,0,0,4,11.49c2.67,2.88,6.43,4.31,11.22,4.31a16.92,16.92,0,0,0,13.62-6.29l-.68,5.25h8.17l6.27-35.56h-8.42ZM174.9,37.5a12.74,12.74,0,0,1-9.58,3.9c-5.95,0-9.37-3.49-9.37-9.31a13,13,0,0,1,3.69-9.37,12.74,12.74,0,0,1,9.58-3.9c6,0,9.51,3.62,9.51,9.3A13,13,0,0,1,174.9,37.5Z" style="fill:url(#d)"/><path d="M212.29,17.72c5.79,0,8,1.49,8.07,4.67v.41l7.53-3.35c-.73-5.81-6.11-8.16-14.92-8.16-11.5,0-18.62,4-18.62,12.45,0,5.75,3.49,8.56,10.88,9.17l7.46.69c3.49.27,5,1.23,5,3.62,0,3.49-3.29,5.2-9.93,5.2-6,0-8.41-1.37-8.62-4.65v-.34s-7.56,3.32-7.56,3.36c.66,5.92,6.2,8.13,15,8.13,12.32,0,20-4.1,20-12.86,0-5.75-3.28-8.14-11-8.9l-7.45-.68c-3.43-.27-5.14-1.5-5.14-3.76C203.05,19.36,206.13,17.72,212.29,17.72Z" style="fill:url(#e)"/><path d="M291,12.32,274.15,39.19,267,12.32h-18l1.8-10.24L241.45,6.2l-1.08,6.12h-6.79l-1.36,7.32h6.86L236.36,35c-1.43,8.14,2.38,13.88,11.69,13.88h7.25l-2.18-7.83h-2.57c-4.82,0-6.36-2-5.53-6.74s2.6-14.71,2.6-14.71H260.3l7.84,29.28-6.33,10.14h9.05l29.2-46.73Z" style="fill:url(#f)"/><polygon points="41.11 43.62 52.62 38.5 52.14 36.57 39.35 36.57 41.11 43.62" style="fill:#b2b2b2;mix-blend-mode:multiply"/><polygon points="60.74 34.89 73.19 29.34 73.55 27.26 62.08 27.26 60.74 34.89" style="fill:#b2b2b2;mix-blend-mode:multiply"/></g></svg>