<?xml version="1.0" encoding="UTF-8"?>
<svg width="200px" height="100px" viewBox="0 0 200 100" version="1.1" xmlns="http://www.w3.org/2000/svg" xmlns:xlink="http://www.w3.org/1999/xlink">
    <!-- Generator: Sketch 61.2 (89653) - https://sketch.com -->
    <title>Artboard</title>
    <desc>Created with Sketch.</desc>
    <g id="Artboard" stroke="none" stroke-width="1" fill="none" fill-rule="evenodd">
        <g id="logo" transform="translate(4.000000, 14.000000)" fill-rule="nonzero">
            <polygon id="Path" fill="#6EAF50" points="37 71.8 189.7 71.8 189.7 50.4 46.5 50.4"></polygon>
            <path d="M28.5,30.9 L10.4,30.9 L5.3,42.3 L0.1,42.3 L19.7,0.2 L38.8,42.3 L33.6,42.3 L28.5,30.9 Z M26.7,26.7 L19.6,10.6 L12.3,26.7 L26.7,26.7 Z" id="Shape" fill="#6EAF50"></path>
            <path d="M60.5,42.8 L60.5,38.8 L60.4,38.8 C58.2,41.6 55.1,43 51.3,43 C49.4,43 47.7,42.6 46.1,41.9 C44.5,41.2 43.2,40.2 42.1,39 C41,37.8 40.1,36.4 39.5,34.8 C38.9,33.2 38.6,31.5 38.6,29.8 C38.6,27.4 39.1,25.2 40.1,23.2 C41.1,21.2 42.6,19.6 44.5,18.4 C46.4,17.2 48.7,16.6 51.2,16.6 C53,16.6 54.6,17 56.2,17.7 C57.8,18.4 59.1,19.5 60.2,20.8 L60.3,20.8 L60.3,0.7 L64.8,0.7 L64.8,42.8 L60.5,42.8 L60.5,42.8 Z M51.9,20.5 C50.2,20.5 48.7,20.9 47.4,21.8 C46.1,22.6 45.1,23.7 44.3,25.1 C43.6,26.5 43.2,28 43.2,29.5 C43.2,31.2 43.5,32.8 44.2,34.2 C44.9,35.7 45.9,36.8 47.2,37.7 C48.5,38.6 50.1,39 51.9,39 C54.7,39 56.8,38.1 58.4,36.3 C60,34.5 60.7,32.2 60.7,29.5 C60.7,27.8 60.3,26.3 59.6,24.9 C58.9,23.5 57.9,22.4 56.5,21.6 C55.3,20.9 53.7,20.5 51.9,20.5 Z" id="Shape" fill="#6EAF50"></path>
            <path d="M94,7.6 L90.2,9.9 C89.3,8.4 88.3,7.3 87.2,6.6 C86.1,5.9 84.6,5.5 82.9,5.5 C81.7,5.5 80.5,5.8 79.4,6.3 C78.3,6.8 77.4,7.6 76.8,8.5 C76.2,9.5 75.8,10.5 75.8,11.7 C75.8,12.8 76.1,13.7 76.8,14.5 C77.5,15.3 78.2,15.9 79.1,16.4 C80,16.9 81.1,17.4 82.4,18 L85.2,19.2 C87.3,20.1 89.1,21 90.6,21.9 C92.1,22.8 93.2,24 94.1,25.4 C95,26.8 95.4,28.5 95.4,30.5 C95.4,32.8 94.8,34.9 93.6,36.8 C92.4,38.7 90.8,40.2 88.7,41.3 C86.6,42.4 84.4,42.9 82,42.9 C79.8,42.9 77.7,42.5 75.9,41.6 C74.1,40.7 72.5,39.5 71.3,38 C70.1,36.4 69.2,34.6 68.8,32.5 L73.4,31.3 C73.7,33.4 74.7,35.2 76.2,36.6 C77.8,38 79.6,38.7 81.9,38.7 C83.4,38.7 84.8,38.4 86.2,37.7 C87.6,37 88.6,36.1 89.4,34.9 C90.2,33.7 90.6,32.4 90.6,30.9 C90.6,29.5 90.3,28.2 89.5,27.3 C88.8,26.3 87.9,25.5 86.9,24.9 C85.9,24.3 84.5,23.6 82.7,22.9 L80.1,21.8 C78.2,21 76.6,20.1 75.2,19.3 C73.9,18.4 72.8,17.4 72,16.1 C71.2,14.8 70.8,13.3 70.8,11.5 C70.8,10 71.1,8.6 71.8,7.3 C72.4,6 73.3,4.9 74.4,4 C75.5,3.1 76.8,2.4 78.2,1.9 C79.6,1.4 81.1,1.2 82.7,1.2 C84.3,1.2 85.8,1.4 87.1,1.9 C88.5,2.4 89.7,3.1 90.9,4 C92.3,5.2 93.2,6.3 94,7.6 Z" id="Path" fill="#0F3C66"></path>
            <path d="M120.4,19.1 L120.4,24.8 L120.3,24.8 C118,22 115.2,20.6 112.1,20.6 C110.3,20.6 108.7,21 107.3,21.9 C105.9,22.7 104.8,23.9 104,25.3 C103.2,26.7 102.8,28.3 102.8,29.9 C102.8,31.6 103.2,33.1 103.9,34.5 C104.7,35.9 105.7,37.1 107.1,37.9 C108.5,38.7 110.1,39.2 111.8,39.2 C115.2,39.2 118.1,37.8 120.4,34.9 L120.5,34.9 L120.5,40.6 C117.8,42.3 115,43.2 112.1,43.2 C109.5,43.2 107.1,42.6 104.9,41.5 C102.7,40.3 101.1,38.8 99.8,36.7 C98.6,34.7 98,32.4 98,30 C98,27.6 98.6,25.3 99.9,23.3 C101.2,21.3 102.9,19.7 105.1,18.5 C107.3,17.3 109.6,16.7 112.2,16.7 C115.2,16.6 118,17.4 120.4,19.1 Z" id="Path" fill="#0F3C66"></path>
            <path d="M190.9,30.7 L170.1,30.7 C170.1,32.2 170.5,33.6 171.2,34.9 C171.9,36.2 173,37.2 174.3,37.9 C175.6,38.6 177.1,39 178.8,39 C182.2,39 184.8,37.3 186.9,33.8 L190.7,35.9 C189.4,38.2 187.7,39.9 185.6,41.1 C183.5,42.3 181.1,42.9 178.4,42.9 C175.8,42.9 173.6,42.3 171.6,41.2 C169.6,40.1 168.1,38.5 167.1,36.5 C166,34.5 165.5,32.4 165.5,30 C165.5,27.5 166,25.2 167,23.2 C168,21.1 169.5,19.5 171.4,18.3 C173.3,17.1 175.7,16.5 178.3,16.5 C180.9,16.5 183.2,17.1 185.1,18.3 C187,19.5 188.4,21.2 189.4,23.3 C190.4,25.6 190.9,28 190.9,30.7 Z M170.4,27.1 L186.2,27.1 C186,25.9 185.5,24.8 184.8,23.8 C184.1,22.8 183.1,22 182,21.4 C180.9,20.8 179.7,20.5 178.4,20.5 C176.5,20.5 174.7,21.1 173.1,22.4 C171.6,23.7 170.6,25.3 170.4,27.1 Z" id="Shape" fill="#0F3C66"></path>
            <rect id="Rectangle" fill="#0F3C66" x="158" y="0" width="4" height="43"></rect>
            <g id="Group" transform="translate(123.000000, 16.000000)" fill="#0F3C66">
                <path d="M24.9,14.3 L24.9,14.3 C24.9,14.2 25,14 25,13.9 L28.3,1.3 L22.8,1.3 L21.9,4.7 L20.8,9 L19.4,14.3 L19.4,14.3 L19.3,14.9 L18.6,17.7 C17,22.9 14.8,25.5 11.9,25.5 C8.1,25.5 6.2,21.8 6.2,14.4 C6.2,6.6 8.2,2.7 12.1,2.7 C13.8,2.7 15.3,3.5 16.6,5.2 C17.2,6 17.7,6.8 18.2,7.9 L19,5 C18.4,4 17.8,3.2 17.1,2.6 C15.7,1.3 13.9,0.6 11.6,0.6 C8.5,0.6 5.8,1.8 3.5,4.1 C1.3,6.4 0.1,9.7 0.1,13.9 C0.1,18.1 1.1,21.4 3.2,23.7 C5.2,26 8,27.1 11.5,27.1 C15.4,27.1 18.5,25.9 20.7,23.5 L20.7,23.5 C20.7,23.5 21.1,23.1 21.7,22.3 C22.2,21.5 22.9,20.3 23.6,18.4 C24.1,17.2 24.5,15.9 24.9,14.3 Z" id="Path"></path>
                <path d="M30.5,20 C30.4,22.3 29.4,23.4 27.5,23.4 C26.6,23.4 25.9,22.9 25.3,22 C24.7,23.1 24.2,23.9 23.7,24.5 C23.9,25.1 24.2,25.5 24.4,25.9 C25,26.7 25.8,27.1 27,27.1 C28.4,27.1 29.5,26.5 30.3,25.2 C31.2,23.9 31.6,22.2 31.7,20.1 L30.5,20.1 L30.5,20 Z" id="Path"></path>
            </g>
            <g id="Group" transform="translate(52.000000, 53.000000)" fill="#FFFFFF">
                <polygon id="Path" points="11.6 1.7 3.2 1.7 3.2 6.5 11 6.5 11 8.1 3.3 8.1 3.3 13.7 11.4 13.7 11.4 15.3 0.9 15.3 0.9 0.1 11.6 0.1 11.6 1.7"></polygon>
                <polygon id="Path" points="20.3 9.9 13.5 9.9 13.5 8.1 20.3 8.1"></polygon>
                <path d="M32.2,11.3 C32.2,12.4 32,13.2 31.5,14 C30.7,15.1 29.4,15.7 27.6,15.7 C25.6,15.7 24.1,15.2 23.2,14.1 C22.5,13.2 22.1,11.8 22.1,9.9 C22.1,8 22.4,6.5 23,5.6 C23.9,4.2 25.4,3.5 27.6,3.5 C28.9,3.5 30,3.9 30.9,4.7 C31.8,5.5 32.2,6.4 32.2,7.5 L30,7.5 C30,6.8 29.8,6.3 29.5,5.9 C29.1,5.4 28.4,5.1 27.6,5.1 C26.4,5.1 25.5,5.6 25,6.6 C24.7,7.3 24.5,8.2 24.5,9.3 C24.5,9.6 24.5,9.8 24.5,9.9 C24.5,11.2 24.6,12.2 24.9,12.7 C25.3,13.7 26.3,14.2 27.6,14.2 C28.5,14.2 29.1,13.9 29.5,13.4 C29.9,12.9 30.1,12.2 30.1,11.3 L32.2,11.3 L32.2,11.3 Z" id="Path"></path>
                <path d="M45.3,9.6 C45.3,11.5 44.9,13 44.1,14 C43.2,15.2 41.8,15.8 39.8,15.8 C37.6,15.8 36.1,15.1 35.2,13.8 C34.5,12.8 34.1,11.4 34.1,9.6 C34.1,7.8 34.4,6.5 35.1,5.5 C36,4.2 37.6,3.5 39.8,3.5 C41.7,3.5 43.1,4 44,5.1 C44.8,6.2 45.3,7.7 45.3,9.6 Z M42.8,9.7 C42.8,8.3 42.6,7.3 42.3,6.7 C41.8,5.6 40.9,5.1 39.5,5.1 C38.2,5.1 37.3,5.6 36.8,6.7 C36.5,7.3 36.4,8.3 36.4,9.6 C36.4,11 36.6,12 36.9,12.7 C37.4,13.7 38.3,14.3 39.7,14.3 C40.9,14.3 41.8,13.7 42.3,12.6 C42.7,11.9 42.8,10.9 42.8,9.7 Z" id="Shape"></path>
                <path d="M65.7,15.3 L63.5,15.3 L63.5,6.6 C63.5,6.5 63.5,6.4 63.5,6.3 C63.5,5.9 63.4,5.6 63.2,5.4 C62.9,5.1 62.3,5 61.5,5 C60.5,5 59.7,5.3 59.1,5.8 C58.5,6.3 58.2,7.1 58.2,8.1 L58.2,15.3 L56,15.3 L56,7.3 C56,6.5 55.9,5.9 55.6,5.6 C55.3,5.2 54.7,5.1 53.9,5.1 C53,5.1 52.2,5.3 51.6,5.8 C50.9,6.3 50.6,7.1 50.6,8.1 L50.6,15.3 L48.4,15.3 L48.4,3.9 L50.6,3.9 L50.6,5.3 C50.8,4.7 51.4,4.3 52.2,4 C52.9,3.7 53.6,3.6 54.3,3.6 C55.1,3.6 55.8,3.7 56.4,4 C57.1,4.3 57.6,4.8 58,5.3 C58.9,4.1 60.3,3.5 62.2,3.5 C63.8,3.5 64.8,3.9 65.3,4.7 C65.5,5.1 65.7,5.7 65.7,6.6 L65.7,15.3 L65.7,15.3 Z" id="Path"></path>
                <path d="M86.9,15.3 L84.7,15.3 L84.7,6.6 C84.7,6.5 84.7,6.4 84.7,6.3 C84.7,5.9 84.6,5.6 84.4,5.4 C84.1,5.1 83.5,5 82.7,5 C81.7,5 80.9,5.3 80.3,5.8 C79.7,6.3 79.4,7.1 79.4,8.1 L79.4,15.3 L77.2,15.3 L77.2,7.3 C77.2,6.5 77.1,5.9 76.8,5.6 C76.5,5.2 75.9,5.1 75.1,5.1 C74.2,5.1 73.4,5.3 72.8,5.8 C72.1,6.3 71.8,7.1 71.8,8.1 L71.8,15.3 L69.6,15.3 L69.6,3.9 L71.8,3.9 L71.8,5.3 C72,4.7 72.6,4.3 73.4,4 C74.1,3.7 74.8,3.6 75.5,3.6 C76.3,3.6 77,3.7 77.6,4 C78.3,4.3 78.8,4.8 79.2,5.3 C80.1,4.1 81.5,3.5 83.4,3.5 C85,3.5 86,3.9 86.5,4.7 C86.7,5.1 86.9,5.7 86.9,6.6 L86.9,15.3 L86.9,15.3 Z" id="Path"></path>
                <path d="M99.5,9.8 L92,9.8 C92,10 92,10.1 92,10.2 C92,10.3 92,10.5 92,10.5 C92,11.6 92.1,12.4 92.4,12.9 C92.8,13.7 93.6,14.2 94.8,14.2 C95.7,14.2 96.4,13.9 96.9,13.3 C97.2,12.8 97.4,12.2 97.4,11.5 L99.5,11.5 C99.5,12.7 99.1,13.7 98.4,14.4 C97.6,15.2 96.4,15.6 94.8,15.6 C93.2,15.6 92,15.2 91.2,14.3 C90.3,13.3 89.8,11.7 89.8,9.6 C89.8,8 90.1,6.7 90.7,5.7 C91.5,4.3 92.9,3.6 94.7,3.6 C96.9,3.6 98.3,4.3 99,5.7 C99.4,6.5 99.5,7.9 99.5,9.8 Z M97.3,8.5 C97.3,7.5 97.2,6.7 97,6.3 C96.6,5.5 95.9,5.1 94.8,5.1 C93.7,5.1 92.9,5.5 92.5,6.3 C92.2,6.8 92.1,7.5 92.1,8.5 L97.3,8.5 Z" id="Shape"></path>
                <path d="M109.3,5.6 C109,5.6 108.8,5.6 108.7,5.6 C107.6,5.6 106.6,6 105.9,6.7 C105.3,7.4 104.9,8.2 104.9,9.1 L104.9,15.4 L102.5,15.4 L102.5,3.9 L104.7,3.9 L104.7,5.7 C105.1,5 105.7,4.5 106.4,4.2 C107.1,3.9 108.1,3.8 109.3,3.8 L109.3,5.6 L109.3,5.6 Z" id="Path"></path>
                <path d="M120.2,11.3 C120.2,12.4 120,13.2 119.5,14 C118.7,15.1 117.4,15.7 115.6,15.7 C113.6,15.7 112.1,15.2 111.2,14.1 C110.5,13.2 110.1,11.8 110.1,9.9 C110.1,8 110.4,6.5 111,5.6 C111.9,4.2 113.4,3.5 115.6,3.5 C116.9,3.5 118,3.9 118.9,4.7 C119.8,5.5 120.2,6.4 120.2,7.5 L118,7.5 C118,6.8 117.8,6.3 117.5,5.9 C117.1,5.4 116.4,5.1 115.6,5.1 C114.4,5.1 113.5,5.6 113,6.6 C112.7,7.3 112.5,8.2 112.5,9.3 C112.5,9.6 112.5,9.8 112.5,9.9 C112.5,11.2 112.6,12.2 112.9,12.7 C113.3,13.7 114.3,14.2 115.6,14.2 C116.5,14.2 117.1,13.9 117.5,13.4 C117.9,12.9 118.1,12.2 118.1,11.3 L120.2,11.3 L120.2,11.3 Z" id="Path"></path>
                <path d="M131.8,9.8 L124.3,9.8 C124.3,10 124.3,10.1 124.3,10.2 C124.3,10.3 124.3,10.5 124.3,10.5 C124.3,11.6 124.4,12.4 124.7,12.9 C125.1,13.7 125.9,14.2 127.1,14.2 C128,14.2 128.7,13.9 129.2,13.3 C129.5,12.8 129.7,12.2 129.7,11.5 L131.8,11.5 C131.8,12.7 131.4,13.7 130.7,14.4 C129.9,15.2 128.7,15.6 127.1,15.6 C125.5,15.6 124.3,15.2 123.5,14.3 C122.6,13.3 122.1,11.7 122.1,9.6 C122.1,8 122.4,6.7 123,5.7 C123.8,4.3 125.2,3.6 127,3.6 C129.2,3.6 130.6,4.3 131.3,5.7 C131.6,6.5 131.8,7.9 131.8,9.8 Z M129.5,8.5 C129.5,7.5 129.4,6.7 129.2,6.3 C128.8,5.5 128.1,5.1 127,5.1 C125.9,5.1 125.1,5.5 124.7,6.3 C124.4,6.8 124.3,7.5 124.3,8.5 L129.5,8.5 Z" id="Shape"></path>
            </g>
        </g>
    </g>
</svg>