<?xml version="1.0" encoding="utf-8"?>
<!-- Generator: Adobe Illustrator 18.1.0, SVG Export Plug-In . SVG Version: 6.00 Build 0)  -->
<svg version="1.1" id="Layer_1" xmlns="http://www.w3.org/2000/svg" xmlns:xlink="http://www.w3.org/1999/xlink" x="0px" y="0px"
	 width="191px" height="72px" viewBox="0 0 191 72" enable-background="new 0 0 191 72" xml:space="preserve">
<g>
	<polygon fill="#6EAF50" points="37,71.8 189.7,71.8 189.7,50.4 46.5,50.4 	"/>
	<path fill="#6EAF50" d="M28.5,30.9H10.4L5.3,42.3H0.1L19.7,0.2l19.1,42.1h-5.2L28.5,30.9z M26.7,26.7l-7.1-16.1l-7.3,16.1H26.7z"/>
	<path fill="#6EAF50" d="M60.5,42.8v-4h-0.1c-2.2,2.8-5.3,4.2-9.1,4.2c-1.9,0-3.6-0.4-5.2-1.1c-1.6-0.7-2.9-1.7-4-2.9
		c-1.1-1.2-2-2.6-2.6-4.2c-0.6-1.6-0.9-3.3-0.9-5c0-2.4,0.5-4.6,1.5-6.6c1-2,2.5-3.6,4.4-4.8c1.9-1.2,4.2-1.8,6.7-1.8
		c1.8,0,3.4,0.4,5,1.1c1.6,0.7,2.9,1.8,4,3.1h0.1V0.7h4.5v42.1H60.5z M51.9,20.5c-1.7,0-3.2,0.4-4.5,1.3c-1.3,0.8-2.3,1.9-3.1,3.3
		c-0.7,1.4-1.1,2.9-1.1,4.4c0,1.7,0.3,3.3,1,4.7c0.7,1.5,1.7,2.6,3,3.5c1.3,0.9,2.9,1.3,4.7,1.3c2.8,0,4.9-0.9,6.5-2.7
		c1.6-1.8,2.3-4.1,2.3-6.8c0-1.7-0.4-3.2-1.1-4.6c-0.7-1.4-1.7-2.5-3.1-3.3C55.3,20.9,53.7,20.5,51.9,20.5z"/>
	<path fill="#0f3c66" d="M94,7.6l-3.8,2.3c-0.9-1.5-1.9-2.6-3-3.3c-1.1-0.7-2.6-1.1-4.3-1.1c-1.2,0-2.4,0.3-3.5,0.8
		c-1.1,0.5-2,1.3-2.6,2.2c-0.6,1-1,2-1,3.2c0,1.1,0.3,2,1,2.8c0.7,0.8,1.4,1.4,2.3,1.9c0.9,0.5,2,1,3.3,1.6l2.8,1.2
		c2.1,0.9,3.9,1.8,5.4,2.7c1.5,0.9,2.6,2.1,3.5,3.5c0.9,1.4,1.3,3.1,1.3,5.1c0,2.3-0.6,4.4-1.8,6.3c-1.2,1.9-2.8,3.4-4.9,4.5
		c-2.1,1.1-4.3,1.6-6.7,1.6c-2.2,0-4.3-0.4-6.1-1.3c-1.8-0.9-3.4-2.1-4.6-3.6c-1.2-1.6-2.1-3.4-2.5-5.5l4.6-1.2
		c0.3,2.1,1.3,3.9,2.8,5.3c1.6,1.4,3.4,2.1,5.7,2.1c1.5,0,2.9-0.3,4.3-1c1.4-0.7,2.4-1.6,3.2-2.8c0.8-1.2,1.2-2.5,1.2-4
		c0-1.4-0.3-2.7-1.1-3.6c-0.7-1-1.6-1.8-2.6-2.4c-1-0.6-2.4-1.3-4.2-2l-2.6-1.1c-1.9-0.8-3.5-1.7-4.9-2.5c-1.3-0.9-2.4-1.9-3.2-3.2
		c-0.8-1.3-1.2-2.8-1.2-4.6c0-1.5,0.3-2.9,1-4.2c0.6-1.3,1.5-2.4,2.6-3.3c1.1-0.9,2.4-1.6,3.8-2.1c1.4-0.5,2.9-0.7,4.5-0.7
		c1.6,0,3.1,0.2,4.4,0.7c1.4,0.5,2.6,1.2,3.8,2.1C92.3,5.2,93.2,6.3,94,7.6z"/>
	<path fill="#0f3c66" d="M120.4,19.1v5.7h-0.1c-2.3-2.8-5.1-4.2-8.2-4.2c-1.8,0-3.4,0.4-4.8,1.3c-1.4,0.8-2.5,2-3.3,3.4
		c-0.8,1.4-1.2,3-1.2,4.6c0,1.7,0.4,3.2,1.1,4.6c0.8,1.4,1.8,2.6,3.2,3.4c1.4,0.8,3,1.3,4.7,1.3c3.4,0,6.3-1.4,8.6-4.3h0.1v5.7
		c-2.7,1.7-5.5,2.6-8.4,2.6c-2.6,0-5-0.6-7.2-1.7c-2.2-1.2-3.8-2.7-5.1-4.8c-1.2-2-1.8-4.3-1.8-6.7c0-2.4,0.6-4.7,1.9-6.7
		c1.3-2,3-3.6,5.2-4.8c2.2-1.2,4.5-1.8,7.1-1.8C115.2,16.6,118,17.4,120.4,19.1z"/>
	<path fill="#0f3c66" d="M190.9,30.7h-20.8c0,1.5,0.4,2.9,1.1,4.2c0.7,1.3,1.8,2.3,3.1,3c1.3,0.7,2.8,1.1,4.5,1.1
		c3.4,0,6-1.7,8.1-5.2l3.8,2.1c-1.3,2.3-3,4-5.1,5.2c-2.1,1.2-4.5,1.8-7.2,1.8c-2.6,0-4.8-0.6-6.8-1.7c-2-1.1-3.5-2.7-4.5-4.7
		c-1.1-2-1.6-4.1-1.6-6.5c0-2.5,0.5-4.8,1.5-6.8c1-2.1,2.5-3.7,4.4-4.9c1.9-1.2,4.3-1.8,6.9-1.8c2.6,0,4.9,0.6,6.8,1.8
		c1.9,1.2,3.3,2.9,4.3,5C190.4,25.6,190.9,28,190.9,30.7z M170.4,27.1h15.8c-0.2-1.2-0.7-2.3-1.4-3.3c-0.7-1-1.7-1.8-2.8-2.4
		c-1.1-0.6-2.3-0.9-3.6-0.9c-1.9,0-3.7,0.6-5.3,1.9C171.6,23.7,170.6,25.3,170.4,27.1z"/>
	<rect x="158" fill="#0f3c66" width="4" height="43"/>
	<g>
		<path fill="#0f3c66" d="M147.9,30.3L147.9,30.3c0-0.1,0.1-0.3,0.1-0.4l3.3-12.6h-5.5l-0.9,3.4l-1.1,4.3l-1.4,5.3l0,0l-0.1,0.6
			l-0.7,2.8c-1.6,5.2-3.8,7.8-6.7,7.8c-3.8,0-5.7-3.7-5.7-11.1c0-7.8,2-11.7,5.9-11.7c1.7,0,3.2,0.8,4.5,2.5
			c0.6,0.8,1.1,1.6,1.6,2.7L142,21c-0.6-1-1.2-1.8-1.9-2.4c-1.4-1.3-3.2-2-5.5-2c-3.1,0-5.8,1.2-8.1,3.5c-2.2,2.3-3.4,5.6-3.4,9.8
			c0,4.2,1,7.5,3.1,9.8c2,2.3,4.8,3.4,8.3,3.4c3.9,0,7-1.2,9.2-3.6l0,0c0,0,0.4-0.4,1-1.2c0.5-0.8,1.2-2,1.9-3.9
			C147.1,33.2,147.5,31.9,147.9,30.3z"/>
		<path fill="#0f3c66" d="M153.5,36c-0.1,2.3-1.1,3.4-3,3.4c-0.9,0-1.6-0.5-2.2-1.4c-0.6,1.1-1.1,1.9-1.6,2.5c0.2,0.6,0.5,1,0.7,1.4
			c0.6,0.8,1.4,1.2,2.6,1.2c1.4,0,2.5-0.6,3.3-1.9c0.9-1.3,1.3-3,1.4-5.1H153.5z"/>
	</g>
	<g>
		<g>
			<path fill="#FFFFFF" d="M63.6,54.7h-8.4v4.8H63v1.6h-7.7v5.6h8.1v1.6H52.9V53.1h10.7V54.7z"/>
			<path fill="#FFFFFF" d="M72.3,62.9h-6.8v-1.8h6.8V62.9z"/>
			<path fill="#FFFFFF" d="M84.2,64.3c0,1.1-0.2,1.9-0.7,2.7c-0.8,1.1-2.1,1.7-3.9,1.7c-2,0-3.5-0.5-4.4-1.6
				c-0.7-0.9-1.1-2.3-1.1-4.2c0-1.9,0.3-3.4,0.9-4.3c0.9-1.4,2.4-2.1,4.6-2.1c1.3,0,2.4,0.4,3.3,1.2c0.9,0.8,1.3,1.7,1.3,2.8H82
				c0-0.7-0.2-1.2-0.5-1.6c-0.4-0.5-1.1-0.8-1.9-0.8c-1.2,0-2.1,0.5-2.6,1.5c-0.3,0.7-0.5,1.6-0.5,2.7c0,0.3,0,0.5,0,0.6
				c0,1.3,0.1,2.3,0.4,2.8c0.4,1,1.4,1.5,2.7,1.5c0.9,0,1.5-0.3,1.9-0.8c0.4-0.5,0.6-1.2,0.6-2.1H84.2z"/>
			<path fill="#FFFFFF" d="M97.3,62.6c0,1.9-0.4,3.4-1.2,4.4c-0.9,1.2-2.3,1.8-4.3,1.8c-2.2,0-3.7-0.7-4.6-2c-0.7-1-1.1-2.4-1.1-4.2
				c0-1.8,0.3-3.1,1-4.1c0.9-1.3,2.5-2,4.7-2c1.9,0,3.3,0.5,4.2,1.6C96.8,59.2,97.3,60.7,97.3,62.6z M94.8,62.7c0-1.4-0.2-2.4-0.5-3
				c-0.5-1.1-1.4-1.6-2.8-1.6c-1.3,0-2.2,0.5-2.7,1.6c-0.3,0.6-0.4,1.6-0.4,2.9c0,1.4,0.2,2.4,0.5,3.1c0.5,1,1.4,1.6,2.8,1.6
				c1.2,0,2.1-0.6,2.6-1.7C94.7,64.9,94.8,63.9,94.8,62.7z"/>
			<path fill="#FFFFFF" d="M117.7,68.3h-2.2v-8.7c0-0.1,0-0.2,0-0.3c0-0.4-0.1-0.7-0.3-0.9c-0.3-0.3-0.9-0.4-1.7-0.4
				c-1,0-1.8,0.3-2.4,0.8c-0.6,0.5-0.9,1.3-0.9,2.3v7.2h-2.2v-8c0-0.8-0.1-1.4-0.4-1.7c-0.3-0.4-0.9-0.5-1.7-0.5
				c-0.9,0-1.7,0.2-2.3,0.7c-0.7,0.5-1,1.3-1,2.3v7.2h-2.2V56.9h2.2v1.4c0.2-0.6,0.8-1,1.6-1.3c0.7-0.3,1.4-0.4,2.1-0.4
				c0.8,0,1.5,0.1,2.1,0.4c0.7,0.3,1.2,0.8,1.6,1.3c0.9-1.2,2.3-1.8,4.2-1.8c1.6,0,2.6,0.4,3.1,1.2c0.2,0.4,0.4,1,0.4,1.9V68.3z"/>
			<path fill="#FFFFFF" d="M138.9,68.3h-2.2v-8.7c0-0.1,0-0.2,0-0.3c0-0.4-0.1-0.7-0.3-0.9c-0.3-0.3-0.9-0.4-1.7-0.4
				c-1,0-1.8,0.3-2.4,0.8c-0.6,0.5-0.9,1.3-0.9,2.3v7.2h-2.2v-8c0-0.8-0.1-1.4-0.4-1.7c-0.3-0.4-0.9-0.5-1.7-0.5
				c-0.9,0-1.7,0.2-2.3,0.7c-0.7,0.5-1,1.3-1,2.3v7.2h-2.2V56.9h2.2v1.4c0.2-0.6,0.8-1,1.6-1.3c0.7-0.3,1.4-0.4,2.1-0.4
				c0.8,0,1.5,0.1,2.1,0.4c0.7,0.3,1.2,0.8,1.6,1.3c0.9-1.2,2.3-1.8,4.2-1.8c1.6,0,2.6,0.4,3.1,1.2c0.2,0.4,0.4,1,0.4,1.9V68.3z"/>
			<path fill="#FFFFFF" d="M151.5,62.8H144c0,0.2,0,0.3,0,0.4c0,0.1,0,0.3,0,0.3c0,1.1,0.1,1.9,0.4,2.4c0.4,0.8,1.2,1.3,2.4,1.3
				c0.9,0,1.6-0.3,2.1-0.9c0.3-0.5,0.5-1.1,0.5-1.8h2.1c0,1.2-0.4,2.2-1.1,2.9c-0.8,0.8-2,1.2-3.6,1.2c-1.6,0-2.8-0.4-3.6-1.3
				c-0.9-1-1.4-2.6-1.4-4.7c0-1.6,0.3-2.9,0.9-3.9c0.8-1.4,2.2-2.1,4-2.1c2.2,0,3.6,0.7,4.3,2.1C151.4,59.5,151.5,60.9,151.5,62.8z
				 M149.3,61.5c0-1-0.1-1.8-0.3-2.2c-0.4-0.8-1.1-1.2-2.2-1.2c-1.1,0-1.9,0.4-2.3,1.2c-0.3,0.5-0.4,1.2-0.4,2.2H149.3z"/>
			<path fill="#FFFFFF" d="M161.3,58.6c-0.3,0-0.5,0-0.6,0c-1.1,0-2.1,0.4-2.8,1.1c-0.6,0.7-1,1.5-1,2.4v6.3h-2.4V56.9h2.2v1.8
				c0.4-0.7,1-1.2,1.7-1.5c0.7-0.3,1.7-0.4,2.9-0.4V58.6z"/>
			<path fill="#FFFFFF" d="M172.2,64.3c0,1.1-0.2,1.9-0.7,2.7c-0.8,1.1-2.1,1.7-3.9,1.7c-2,0-3.5-0.5-4.4-1.6
				c-0.7-0.9-1.1-2.3-1.1-4.2c0-1.9,0.3-3.4,0.9-4.3c0.9-1.4,2.4-2.1,4.6-2.1c1.3,0,2.4,0.4,3.3,1.2c0.9,0.8,1.3,1.7,1.3,2.8H170
				c0-0.7-0.2-1.2-0.5-1.6c-0.4-0.5-1.1-0.8-1.9-0.8c-1.2,0-2.1,0.5-2.6,1.5c-0.3,0.7-0.5,1.6-0.5,2.7c0,0.3,0,0.5,0,0.6
				c0,1.3,0.1,2.3,0.4,2.8c0.4,1,1.4,1.5,2.7,1.5c0.9,0,1.5-0.3,1.9-0.8c0.4-0.5,0.6-1.2,0.6-2.1H172.2z"/>
			<path fill="#FFFFFF" d="M183.8,62.8h-7.5c0,0.2,0,0.3,0,0.4c0,0.1,0,0.3,0,0.3c0,1.1,0.1,1.9,0.4,2.4c0.4,0.8,1.2,1.3,2.4,1.3
				c0.9,0,1.6-0.3,2.1-0.9c0.3-0.5,0.5-1.1,0.5-1.8h2.1c0,1.2-0.4,2.2-1.1,2.9c-0.8,0.8-2,1.2-3.6,1.2c-1.6,0-2.8-0.4-3.6-1.3
				c-0.9-1-1.4-2.6-1.4-4.7c0-1.6,0.3-2.9,0.9-3.9c0.8-1.4,2.2-2.1,4-2.1c2.2,0,3.6,0.7,4.3,2.1C183.6,59.5,183.8,60.9,183.8,62.8z
				 M181.5,61.5c0-1-0.1-1.8-0.3-2.2c-0.4-0.8-1.1-1.2-2.2-1.2c-1.1,0-1.9,0.4-2.3,1.2c-0.3,0.5-0.4,1.2-0.4,2.2H181.5z"/>
		</g>
	</g>
</g>
</svg>
